<?xml version="1.0" standalone="no"?>
<!DOCTYPE svg PUBLIC "-//W3C//DTD SVG 20010904//EN"
 "http://www.w3.org/TR/2001/REC-SVG-20010904/DTD/svg10.dtd">
<svg version="1.0" xmlns="http://www.w3.org/2000/svg"
 width="1470.000000pt" height="1470.000000pt" viewBox="0 0 1470.000000 1470.000000"
 preserveAspectRatio="xMidYMid meet">
<metadata>
Created by potrace 1.14, written by Peter Selinger 2001-2017
</metadata>
<g transform="translate(0.000000,1470.000000) scale(0.100000,-0.100000)"
fill="#000000" stroke="none">
<path d="M0 13050 c0 -1315 3 -1648 13 -1645 6 3 50 9 97 14 67 8 102 18 165
50 97 48 167 66 307 80 59 6 133 20 165 32 142 51 267 65 309 34 10 -8 15 -15
10 -15 -5 0 -3 -7 4 -15 7 -9 11 -17 9 -19 -25 -20 -112 -48 -184 -60 -49 -8
-130 -29 -179 -46 -71 -26 -114 -34 -219 -41 -117 -8 -138 -13 -201 -43 -91
-42 -128 -54 -218 -69 l-73 -13 -3 -457 c-1 -251 2 -457 6 -457 5 0 74 -38
154 -84 l146 -83 -1 46 c-2 37 1 46 17 49 11 2 24 -2 30 -10 6 -9 21 -18 34
-22 30 -10 44 -39 33 -68 l-9 -23 -13 28 c-13 28 -13 28 -21 7 -6 -16 -14 -21
-28 -17 -36 9 -21 -7 33 -37 70 -38 666 -439 793 -532 38 -29 110 -79 159
-111 50 -33 121 -86 159 -117 53 -43 74 -55 90 -50 91 30 174 31 304 5 200
-40 228 -43 462 -42 265 1 506 15 595 35 94 21 204 55 239 73 l31 17 -42 6
c-48 7 -48 7 -57 38 -6 19 -4 22 18 22 14 0 28 5 32 11 5 8 -1 10 -20 7 -37
-7 -43 9 -9 23 15 6 41 17 57 25 16 8 49 17 73 21 23 3 43 8 43 10 0 11 -169
185 -293 303 -422 399 -512 475 -722 612 -55 35 -163 112 -240 169 -77 58
-169 121 -205 141 -206 112 -235 132 -340 237 -116 116 -189 210 -362 466
-123 182 -152 231 -275 455 -245 451 -385 804 -503 1271 -76 302 -92 583 -46
802 33 154 42 172 86 173 19 1 82 3 140 5 125 4 147 -5 215 -92 94 -120 222
-437 270 -669 32 -157 174 -576 219 -645 7 -11 34 -76 60 -145 50 -129 84
-205 136 -299 17 -30 28 -61 25 -68 -3 -9 0 -11 7 -7 8 5 9 2 5 -9 -3 -10 -3
-17 1 -17 4 0 18 -25 32 -56 13 -32 58 -105 100 -165 41 -59 92 -134 112 -166
20 -32 85 -111 145 -174 59 -63 153 -166 208 -227 55 -62 166 -178 248 -258
159 -158 169 -162 183 -87 6 30 2 38 -28 66 -55 51 -86 106 -107 192 -59 241
-212 795 -236 853 -9 20 -27 79 -40 132 -41 160 -76 258 -287 795 -96 243
-119 291 -209 425 -309 463 -446 746 -489 1008 l-12 72 -554 0 -554 0 0 -1650z"/>
<path d="M1285 14663 c10 -63 38 -173 45 -173 13 0 71 70 65 80 -3 5 14 15 39
22 l45 12 -22 19 c-48 43 -112 77 -144 77 -34 0 -34 0 -28 -37z"/>
<path d="M1655 14680 c10 -11 15 -20 10 -20 -4 0 -2 -7 5 -15 7 -8 16 -13 20
-10 11 7 92 -84 85 -95 -4 -6 -1 -9 7 -8 7 2 12 -3 11 -9 -2 -7 2 -13 7 -13
13 0 91 -120 85 -130 -3 -4 2 -11 11 -14 10 -4 14 -12 10 -23 -4 -10 -4 -14 0
-11 10 10 56 -61 48 -74 -4 -6 -2 -8 3 -5 11 7 28 -20 24 -36 -1 -5 3 -6 8 -2
11 6 56 -49 56 -68 0 -7 5 -12 12 -12 6 0 22 -13 34 -30 13 -16 27 -33 32 -36
4 -3 7 -12 5 -19 -2 -8 2 -14 9 -15 17 0 95 -124 87 -138 -4 -7 -3 -9 1 -4 11
9 86 -103 78 -116 -3 -6 -1 -7 5 -3 13 8 45 -47 34 -59 -4 -5 -2 -5 4 -2 19
11 232 -422 219 -444 -4 -5 -2 -9 4 -9 24 0 134 -355 181 -585 17 -82 39 -184
50 -225 19 -80 128 -316 238 -518 75 -138 74 -138 92 1 47 378 62 767 36 902
-9 44 -25 150 -36 235 -22 176 -42 260 -101 422 -22 62 -45 137 -50 166 -15
85 -54 175 -111 259 -51 73 -104 183 -150 313 -24 66 -21 154 6 195 10 15 43
39 74 53 51 24 69 26 172 27 131 0 136 -2 240 -86 36 -29 91 -69 123 -89 31
-20 54 -40 50 -45 -5 -4 -2 -5 5 -1 8 5 38 -18 83 -63 39 -39 77 -71 84 -71 7
0 27 -17 43 -37 38 -48 149 -281 167 -351 8 -29 17 -57 20 -62 13 -21 30 -488
30 -832 l0 -367 30 48 c60 96 113 141 167 141 14 0 39 11 55 24 46 39 119 205
159 361 35 137 36 143 30 285 -3 80 -14 201 -26 270 -27 168 -26 209 6 272 26
50 26 54 12 98 -17 52 -17 76 1 175 19 101 29 124 60 132 48 12 235 8 283 -6
58 -17 114 -73 157 -160 38 -73 113 -333 135 -462 31 -184 58 -496 46 -539 -6
-22 -67 -181 -136 -352 -70 -172 -149 -369 -176 -438 -54 -134 -109 -221 -212
-338 -35 -40 -122 -146 -192 -235 -131 -166 -177 -248 -238 -417 -47 -130 -93
-452 -62 -432 5 3 6 -9 3 -27 -4 -20 -3 -30 3 -26 6 3 9 -4 8 -17 -1 -13 11
-48 25 -79 15 -31 27 -65 27 -77 0 -44 34 -119 73 -162 54 -60 153 -146 202
-177 22 -14 50 -35 62 -46 22 -20 22 -21 5 -40 -16 -19 -14 -22 78 -109 105
-98 233 -194 238 -178 2 5 9 10 16 10 6 0 34 23 61 50 27 28 53 50 58 50 5 0
43 32 85 71 105 96 387 302 497 362 50 27 182 101 294 164 548 309 950 480
1646 699 226 71 250 77 415 95 234 25 547 35 678 20 78 -8 109 -8 125 1 30 16
46 39 47 67 0 21 3 23 30 17 l31 -6 -17 29 c-10 16 -41 59 -70 96 -30 36 -72
97 -94 135 -103 177 -336 507 -405 575 -67 66 -150 162 -276 320 -109 136
-167 244 -248 459 -101 271 -116 344 -116 586 0 140 4 204 18 264 9 44 16 80
14 82 -3 4 -201 -47 -277 -71 -138 -44 -175 -57 -180 -65 -10 -15 -187 -71
-240 -75 -69 -5 -77 -7 -175 -40 -44 -14 -87 -28 -95 -30 -8 -3 -113 -38 -234
-79 -120 -41 -230 -77 -245 -80 -25 -6 -25 -6 -7 9 19 14 18 15 -20 15 -91 1
-74 28 51 86 44 20 83 42 87 48 4 6 8 8 8 3 0 -4 24 6 53 22 28 17 144 64 257
106 265 98 261 96 255 105 -2 4 17 15 43 25 104 37 102 36 102 65 0 15 -9 35
-20 45 -25 23 -116 16 -208 -14 -59 -20 -64 -21 -94 -5 l-32 17 25 20 24 20
-27 -5 c-20 -4 -28 -1 -28 8 0 8 5 14 12 14 6 0 8 3 4 7 -4 4 -16 8 -26 8 -11
0 -20 5 -21 10 0 6 50 22 113 38 62 15 171 43 241 62 70 20 147 38 170 41 42
5 42 5 75 -49 32 -56 43 -112 20 -104 -7 2 -13 10 -13 18 0 8 -5 21 -10 29 -7
12 -10 10 -16 -10 -12 -44 -10 -80 5 -80 12 0 30 -33 27 -51 0 -4 8 -5 19 -2
11 3 18 10 17 16 -1 6 6 13 17 15 11 2 16 0 12 -7 -10 -15 4 -14 93 9 43 11
87 21 97 23 10 2 37 9 59 15 22 6 58 13 80 17 63 9 71 13 99 56 41 61 104 118
168 150 46 23 70 29 125 29 89 0 191 -32 238 -76 l37 -34 116 24 c65 14 155
32 202 41 50 10 92 24 101 34 11 12 19 46 24 104 l7 87 -3453 0 c-3451 0
-3452 0 -3434 -20z m4874 -894 c30 -16 51 -53 51 -91 0 -30 -47 -83 -75 -86
-76 -6 -115 26 -115 95 0 37 5 48 31 70 34 29 67 33 108 12z m-852 -154 c-3
-31 -24 -36 -41 -9 -9 15 -7 21 8 32 25 19 35 11 33 -23z m177 -1282 c9 -7 16
-18 16 -25 0 -8 13 -24 29 -37 31 -24 128 -154 161 -217 11 -20 24 -43 29 -51
33 -53 112 -231 106 -239 -3 -6 -1 -11 6 -11 7 0 10 -2 7 -5 -9 -10 -38 7 -38
22 0 8 -4 12 -9 9 -5 -4 -12 7 -16 24 -7 32 -12 35 -33 22 -16 -11 -5 -42 21
-61 15 -10 17 -21 13 -47 -5 -25 -3 -35 10 -42 22 -12 12 -27 -37 -58 -103
-65 -352 -129 -323 -83 3 6 1 16 -6 24 -7 9 -8 15 0 20 21 13 9 25 -30 31 -28
5 -40 11 -40 23 0 10 -7 26 -15 37 -21 27 -18 49 8 67 22 16 22 16 -13 17 -40
0 -65 13 -56 28 3 5 -1 16 -10 23 -15 12 -14 52 3 95 3 9 -2 14 -16 14 -24 0
-53 30 -58 58 -3 20 38 57 110 101 55 34 60 56 25 108 -33 48 -36 100 -6 95
27 -4 78 26 78 47 0 31 53 38 84 11z m942 -125 c55 -36 66 -124 23 -179 -80
-101 -230 -56 -233 70 -2 103 122 167 210 109z"/>
<path d="M9124 14659 c4 -22 16 -59 27 -80 14 -28 18 -50 14 -72 -5 -23 12
-115 51 -288 57 -250 58 -256 56 -393 -2 -153 7 -207 72 -413 44 -139 89 -231
119 -242 13 -5 31 -28 42 -50 21 -47 32 -48 57 -5 39 68 148 499 184 729 14
94 55 292 90 440 35 149 70 303 77 343 l14 72 -405 0 -405 0 7 -41z"/>
<path d="M10526 14658 c-3 -24 -7 -155 -10 -293 -10 -526 -72 -938 -247 -1639
-49 -198 -87 -361 -84 -364 2 -2 14 12 26 32 35 59 30 41 -13 -51 l-41 -87 2
-121 c1 -66 5 -123 10 -128 4 -4 30 16 56 45 80 88 272 497 445 945 127 331
113 206 114 1005 l1 698 -52 0 c-29 0 -53 -1 -54 -2 0 -2 -7 -50 -14 -108
l-12 -105 -2 108 -1 107 -59 0 -60 0 -5 -42z"/>
<path d="M11450 14690 c0 -6 11 -66 24 -133 14 -67 30 -167 36 -222 6 -55 21
-158 33 -230 20 -116 22 -165 22 -448 0 -195 4 -316 9 -314 6 2 24 24 42 50
24 35 39 75 57 159 44 200 98 494 113 620 8 68 24 186 36 263 30 204 31 213
24 240 l-6 25 -195 0 c-127 0 -195 -4 -195 -10z"/>
<path d="M13400 14687 c211 -63 394 -135 502 -198 70 -41 90 -60 70 -67 -7 -2
-12 -12 -12 -23 0 -15 -5 -18 -32 -13 -69 13 -144 38 -252 84 -213 91 -393
137 -711 179 -164 22 -482 48 -489 40 -3 -3 7 -54 22 -114 26 -106 27 -119 25
-356 -2 -271 -8 -319 -58 -520 -48 -191 -113 -366 -210 -564 -93 -189 -135
-258 -221 -359 -54 -63 -65 -71 -136 -96 -88 -31 -188 -91 -401 -244 -390
-279 -598 -476 -679 -645 -17 -36 -57 -101 -90 -144 -64 -87 -136 -205 -205
-336 -33 -63 -43 -92 -41 -120 2 -20 8 -36 15 -36 7 0 19 -10 27 -21 11 -15
23 -20 41 -17 20 4 25 1 25 -15 0 -24 16 -37 25 -22 11 18 23 10 30 -20 6 -28
25 -43 25 -20 0 6 7 10 15 10 9 0 15 -9 15 -24 0 -27 15 -42 25 -26 11 17 24
11 31 -15 7 -30 20 -32 29 -5 7 21 25 28 25 10 0 -5 9 -10 20 -10 11 0 20 -4
20 -10 0 -5 6 -10 14 -10 8 0 16 -4 18 -8 2 -5 29 -28 61 -51 31 -24 57 -47
57 -51 0 -5 14 -13 30 -19 17 -5 30 -15 30 -20 0 -17 70 -13 76 4 15 37 65 14
159 -73 42 -39 62 -51 77 -46 23 7 83 -30 154 -94 11 -10 41 -33 66 -50 25
-17 48 -39 52 -48 4 -9 9 -14 13 -11 10 11 33 -14 33 -35 0 -11 5 -18 13 -15
6 2 20 -3 30 -11 10 -9 28 -17 40 -19 12 -2 30 -15 40 -28 10 -14 27 -25 37
-25 10 0 22 -5 25 -10 11 -18 114 -90 128 -90 8 0 25 -10 39 -22 14 -13 42
-36 62 -53 21 -16 42 -40 47 -52 5 -13 17 -23 29 -23 15 0 20 -7 20 -29 0 -22
6 -30 25 -35 18 -5 25 -13 25 -30 0 -15 7 -26 20 -29 12 -3 20 -14 20 -25 0
-12 9 -23 20 -27 11 -3 20 -15 20 -25 0 -12 10 -21 29 -25 20 -4 29 -12 28
-23 -1 -24 40 -77 72 -92 14 -7 33 -16 41 -21 8 -5 23 -12 33 -15 18 -7 25
-54 7 -54 -20 0 -8 -24 67 -138 42 -65 95 -153 118 -197 23 -44 52 -96 63
-115 12 -19 22 -42 22 -51 0 -9 7 -23 17 -30 15 -13 16 -11 8 16 -14 54 -11
67 20 84 34 19 89 38 125 45 115 20 161 26 275 36 72 7 139 16 151 22 12 5 30
8 41 6 11 -1 27 3 35 10 13 10 83 16 148 12 8 -1 34 0 56 2 28 2 40 0 37 -8
-4 -11 75 -49 84 -40 3 3 22 -1 42 -9 58 -21 242 -40 251 -26 5 9 38 6 131
-14 68 -14 149 -33 179 -42 72 -21 208 -81 263 -117 l27 -18 0 721 c0 416 -4
721 -9 721 -14 0 -19 -23 -14 -68 6 -52 -15 -65 -55 -35 -41 30 -71 37 -78 19
-8 -21 -51 -20 -89 0 -16 9 -57 17 -90 19 -33 1 -78 8 -100 14 -22 6 -66 16
-98 21 -113 17 -235 110 -296 225 l-26 50 -65 7 c-106 12 -194 29 -207 40 -24
20 -15 46 20 54 31 7 31 8 7 14 l-25 7 25 6 c14 4 66 16 115 27 127 29 129 30
144 89 13 50 25 64 34 39 3 -10 9 -8 24 5 11 9 27 17 35 17 9 0 22 7 29 16 12
14 10 16 -16 13 -17 -2 -38 -10 -48 -18 -9 -8 -20 -12 -23 -9 -10 11 27 37 63
44 40 8 196 -9 313 -33 122 -25 139 -26 282 -4 75 12 139 21 142 21 3 0 6 768
6 1707 l0 1707 -27 78 -28 78 -640 -1 c-464 -1 -630 -4 -605 -12z"/>
<path d="M1725 14590 c10 -11 20 -20 23 -20 3 0 -3 9 -13 20 -10 11 -20 20
-23 20 -3 0 3 -9 13 -20z"/>
<path d="M7833 14415 c-39 -17 -41 -21 -8 -27 13 -3 22 -2 20 2 -3 5 13 6 35
3 40 -6 50 3 28 25 -15 15 -35 15 -75 -3z"/>
<path d="M8380 14364 c-63 -13 -148 -30 -187 -39 l-73 -16 0 -48 c0 -26 -7
-94 -16 -152 -22 -143 -21 -316 1 -404 10 -38 22 -76 27 -82 6 -7 7 -13 3 -13
-4 0 -3 -6 3 -12 5 -7 17 -35 25 -63 40 -134 128 -331 171 -382 14 -17 56 -77
94 -134 80 -121 210 -296 368 -496 66 -83 138 -188 174 -254 88 -161 127 -218
155 -231 14 -6 37 -33 52 -60 14 -26 34 -50 45 -54 11 -3 31 -34 49 -74 32
-70 48 -85 80 -75 30 10 32 46 9 122 -24 79 -25 110 -15 283 7 114 5 131 -15
190 -28 83 -67 153 -144 256 -33 45 -91 126 -128 180 -37 55 -110 158 -162
229 -119 162 -156 230 -155 281 1 23 -11 71 -30 116 -70 176 -123 431 -151
726 -10 113 -24 210 -31 218 -14 17 -7 17 -149 -12z"/>
<path d="M7835 14206 c-60 -17 -101 -32 -90 -34 64 -11 141 -35 165 -52 l29
-20 6 47 c3 27 8 56 10 65 2 10 0 19 -3 21 -4 2 -56 -10 -117 -27z"/>
<path d="M7698 14163 c7 -3 16 -2 19 1 4 3 -2 6 -13 5 -11 0 -14 -3 -6 -6z"/>
<path d="M7595 14119 c-20 -37 -15 -46 10 -19 10 11 24 20 31 20 8 0 11 6 8
15 -10 24 -32 17 -49 -16z"/>
<path d="M3781 11273 c-13 -47 -14 -105 -2 -83 11 18 25 120 17 120 -3 0 -10
-17 -15 -37z"/>
<path d="M14020 11100 c0 -5 7 -10 15 -10 8 0 15 5 15 10 0 6 -7 10 -15 10 -8
0 -15 -4 -15 -10z"/>
<path d="M14677 10763 c-3 -5 1 -35 8 -68 l13 -60 1 68 c1 59 -8 83 -22 60z"/>
<path d="M0 9415 l0 -667 52 7 c28 4 119 7 202 7 376 0 541 -28 1006 -173 367
-114 782 -297 1195 -529 244 -136 421 -264 556 -402 76 -77 113 -125 173 -226
42 -71 76 -134 76 -140 0 -7 -9 -12 -20 -12 -11 0 -19 -3 -19 -7 3 -21 -3 -24
-18 -12 -9 8 -14 9 -10 3 7 -12 -13 -24 -39 -24 -7 0 -56 33 -107 73 -193 148
-370 276 -502 362 -600 390 -1300 708 -1936 879 l-95 26 -90 -24 c-119 -32
-241 -54 -341 -62 l-83 -7 0 -1337 0 -1336 183 -91 c195 -97 256 -117 258 -86
1 10 1 21 0 26 -2 15 43 6 117 -25 70 -28 502 -244 677 -338 39 -21 98 -52
133 -69 l63 -32 -43 -50 c-70 -83 -111 -139 -100 -139 6 0 14 9 17 20 3 11 10
20 15 20 11 0 -91 -158 -103 -159 -4 -1 5 18 21 42 57 84 55 94 -2 12 -19 -26
-32 -53 -29 -60 2 -7 -1 -16 -8 -21 -8 -5 -10 -3 -5 7 4 8 -4 1 -18 -16 -14
-16 -26 -34 -26 -40 0 -5 10 1 21 15 21 25 21 25 7 1 -18 -30 -42 -34 -80 -15
-16 8 -83 28 -148 44 -117 29 -243 70 -385 125 -38 15 -79 29 -90 33 -11 3
-121 52 -245 108 l-225 103 -3 -121 c-2 -113 -1 -123 23 -163 13 -24 38 -56
54 -72 16 -16 46 -56 67 -89 20 -32 41 -60 46 -62 4 -2 8 -10 8 -17 0 -7 10
-26 23 -42 12 -15 44 -72 72 -125 27 -53 52 -95 55 -93 6 4 27 -46 31 -70 1
-5 8 -19 15 -30 8 -11 14 -26 14 -33 0 -8 6 -28 14 -45 33 -72 65 -165 75
-212 5 -27 16 -86 25 -130 18 -93 35 -245 26 -240 -10 6 -61 -95 -54 -107 4
-6 3 -8 -3 -5 -6 4 -15 -5 -22 -20 -11 -25 -11 -25 6 -12 13 11 11 4 -7 -26
-30 -52 -47 -69 -26 -27 9 17 14 32 11 32 -12 0 -104 -204 -95 -210 5 -3 5
-11 0 -20 -9 -13 -10 -13 -10 0 -1 14 -22 -23 -48 -85 -11 -27 -11 -28 3 -11
23 29 18 12 -9 -36 -14 -24 -29 -42 -34 -41 -6 1 -13 -4 -16 -13 -3 -8 -1 -12
4 -9 6 3 7 -1 4 -9 -3 -9 -10 -14 -14 -11 -4 3 -11 -2 -14 -11 -4 -9 -2 -13 5
-8 7 4 10 1 7 -7 -3 -8 -11 -13 -17 -11 -7 1 -10 -2 -6 -8 3 -6 3 -19 0 -31
-5 -16 -10 -18 -21 -8 -8 6 -14 18 -14 25 0 8 -5 14 -10 14 -10 0 -21 21 -34
70 -6 19 -5 21 3 10 13 -18 13 -3 1 25 -6 14 -9 15 -10 5 -2 -18 -18 17 -19
40 -1 13 1 13 10 0 9 -12 10 -12 5 3 -3 10 -6 24 -6 30 0 7 -5 6 -10 -3 -8
-11 -9 -8 -4 12 3 15 1 35 -5 45 -8 14 -11 15 -11 3 -1 -8 -8 2 -16 24 -7 21
-11 42 -8 47 9 16 -36 140 -49 132 -6 -4 -8 0 -4 10 3 9 2 27 -2 39 -6 14 -10
-279 -10 -724 -1 -535 2 -749 10 -753 6 -4 25 7 43 24 l32 31 25 -26 c38 -40
70 -54 110 -45 62 14 116 53 148 106 36 59 39 102 14 181 l-16 52 28 54 c64
121 88 156 102 151 7 -3 17 6 22 19 5 13 25 51 45 86 19 34 34 64 33 66 -1 2
10 22 25 45 14 22 29 50 33 61 3 11 10 20 15 20 5 0 12 9 15 20 4 11 10 18 15
15 5 -3 11 1 14 7 3 7 5 -55 4 -139 0 -83 3 -157 7 -163 4 -6 6 -91 5 -188 -3
-224 -2 -317 6 -310 7 8 12 35 14 83 l2 40 10 -35 c10 -38 12 -55 22 -141 3
-30 11 -80 17 -110 6 -30 13 -67 16 -84 2 -16 11 -64 19 -105 9 -41 18 -88 20
-105 3 -16 12 -57 19 -90 7 -33 23 -107 36 -165 12 -58 26 -106 30 -108 4 -2
6 -9 3 -17 -3 -7 0 -16 5 -20 6 -3 9 -10 6 -15 -18 -30 192 -613 228 -628 4
-2 5 -8 1 -13 -3 -5 -1 -9 5 -9 10 0 27 -38 23 -52 -1 -5 3 -8 9 -8 5 0 8 -4
5 -9 -3 -5 0 -11 8 -14 8 -3 20 -23 27 -44 6 -21 27 -67 46 -101 18 -35 30
-69 26 -74 -3 -6 -1 -8 4 -5 13 8 26 -20 16 -35 -3 -6 -2 -8 4 -5 5 3 36 -41
69 -99 32 -57 62 -104 66 -104 5 0 8 -9 8 -20 0 -20 8 -20 1061 -17 l1062 2
98 140 c54 77 116 170 138 207 39 64 170 230 409 517 62 74 112 140 112 148 0
7 -11 18 -25 25 -22 10 -56 67 -85 143 -7 17 -14 65 -16 108 -2 43 -8 96 -13
118 -15 68 -3 224 23 298 9 25 19 58 22 75 3 16 18 57 33 90 15 34 52 124 81
201 l53 140 80 64 c57 45 100 70 144 84 41 13 74 32 96 53 21 22 41 34 60 34
30 0 82 23 106 48 14 13 11 19 -29 53 -25 22 -48 39 -51 39 -4 0 -6 11 -6 24
0 19 4 23 19 21 16 -3 93 -57 108 -76 3 -3 25 -9 49 -13 61 -9 93 -31 124 -82
15 -24 33 -44 41 -44 27 0 61 -56 80 -132 l19 -76 40 -5 c22 -3 44 -12 49 -21
5 -8 15 -13 23 -10 28 11 10 -58 -21 -82 -15 -13 -30 -22 -33 -21 -3 0 -16 -2
-28 -7 -28 -9 -29 -35 -7 -184 19 -131 23 -144 34 -117 7 17 9 17 9 3 1 -28
21 -21 21 7 0 14 5 25 10 25 6 0 10 8 11 18 0 11 4 7 11 -11 5 -15 13 -25 18
-22 10 6 25 -60 95 -430 31 -159 69 -351 86 -425 40 -177 43 -194 24 -150
l-15 35 6 -35 c4 -19 12 -53 20 -75 8 -25 10 -41 4 -43 -14 -5 -2 -22 15 -22
7 0 20 6 27 13 7 6 32 25 56 41 24 17 49 37 55 46 14 20 77 44 77 29 0 -5 -4
-9 -10 -9 -5 0 -10 -4 -10 -8 0 -5 10 -8 23 -8 19 1 22 -4 20 -34 -4 -58 -5
-61 -37 -84 -34 -25 -231 -98 -240 -89 -3 3 -1 14 4 24 17 32 6 64 -22 64 -23
-1 -24 2 -14 20 6 11 20 28 30 37 17 16 15 23 -7 19 -5 -1 -6 3 -2 9 3 5 2 10
-3 10 -6 0 -14 13 -20 28 -5 16 -16 29 -24 29 -19 0 -40 -24 -28 -32 14 -8 -9
-52 -30 -58 -9 -2 -32 2 -51 11 -19 8 -65 20 -104 26 -65 10 -70 13 -71 36 0
23 -29 90 -38 90 -2 0 -4 -15 -3 -33 1 -22 -11 -53 -32 -87 -32 -52 -33 -54
-17 -87 l16 -33 -36 -15 c-20 -8 -40 -15 -45 -15 -5 0 -36 -24 -68 -54 -71
-66 -107 -85 -184 -102 -84 -17 -143 -10 -200 23 -27 15 -63 36 -80 46 -18 11
-41 27 -52 37 -11 10 -30 21 -42 24 -12 4 -32 19 -44 34 l-22 27 8 -40 c3 -22
23 -62 44 -90 20 -27 47 -66 58 -85 29 -47 61 -75 101 -88 41 -14 60 -7 152
54 47 31 83 47 112 50 24 2 54 7 66 10 15 3 21 1 17 -6 -3 -6 3 -10 14 -10 26
0 26 -15 1 -65 -11 -22 -20 -47 -20 -58 0 -10 -12 -23 -27 -30 -51 -23 -103
-59 -103 -70 0 -8 4 -7 9 2 5 8 11 9 15 3 3 -5 -9 -16 -27 -23 -40 -17 -47
-18 -71 -6 -15 7 -18 6 -13 -5 3 -8 0 -15 -6 -16 -90 -10 -186 -44 -288 -101
l-74 -41 430 3 430 2 120 43 c66 24 148 56 183 73 35 16 69 29 77 29 8 0 17 5
20 10 3 6 15 10 26 10 13 0 18 4 13 12 -5 8 -2 9 9 5 10 -3 17 -3 17 2 0 7
199 55 278 66 17 3 47 8 65 11 17 3 52 7 77 9 25 2 45 4 45 5 0 1 18 4 40 5
22 2 40 4 40 5 0 1 12 3 28 5 15 2 27 -1 27 -7 0 -7 4 -7 13 0 6 5 35 10 62
10 28 0 55 1 60 2 20 5 50 5 55 0 3 -3 40 -3 83 0 43 3 88 1 100 -3 12 -5 83
-10 157 -12 134 -3 206 -14 364 -57 61 -17 74 -23 57 -29 -18 -7 -19 -12 -9
-39 13 -39 43 -58 186 -115 l112 -45 462 0 c508 0 469 -5 403 48 -5 4 -29 23
-52 41 -27 22 -40 38 -35 47 4 7 37 44 74 84 77 81 96 112 104 172 7 50 -25
179 -56 230 -11 18 -20 43 -20 56 0 44 -39 102 -90 133 -28 17 -50 37 -50 44
0 8 48 62 106 122 81 82 114 124 139 176 28 57 54 159 59 228 3 46 345 363
457 424 51 27 158 106 359 262 129 100 217 135 238 96 9 -15 19 -11 88 34 96
61 164 94 177 86 6 -3 7 -1 4 4 -10 16 41 31 84 26 24 -3 49 2 75 16 52 28 99
27 135 -3 25 -21 34 -23 61 -15 18 5 47 9 63 7 17 -1 36 2 43 6 9 5 19 0 30
-15 9 -13 30 -37 47 -53 16 -16 29 -33 27 -38 -1 -4 1 -7 5 -7 20 3 26 -2 13
-11 -9 -6 -10 -10 -3 -10 25 0 23 21 -4 45 -23 20 -25 26 -14 34 12 8 12 13
-2 35 -26 39 -21 105 13 178 16 34 30 74 30 88 1 85 112 190 228 215 31 6 43
27 22 40 -19 12 -62 87 -82 144 -33 95 -10 258 51 353 31 48 107 112 122 102
5 -3 9 -1 9 4 0 6 7 13 16 16 8 3 12 2 9 -4 -4 -6 5 -5 19 1 14 7 23 16 20 20
-3 5 2 6 10 3 9 -3 16 -1 16 5 0 6 7 8 17 4 9 -4 14 -2 11 3 -4 5 8 10 25 11
18 2 75 9 127 17 52 9 160 20 240 26 80 6 164 15 187 20 23 6 63 10 88 10 26
0 74 11 108 24 34 13 73 26 87 30 14 3 55 24 90 47 35 23 98 59 140 81 41 22
118 72 170 112 90 68 135 99 260 178 93 59 338 198 388 220 53 23 119 68 210
145 34 29 83 64 107 79 25 14 45 30 45 35 0 23 201 207 243 222 10 4 31 0 47
-8 37 -19 46 -19 30 0 -7 8 -18 15 -25 15 -7 0 -18 7 -25 16 -11 13 -10 18 7
36 18 18 25 19 56 9 19 -6 60 -27 92 -47 54 -32 59 -33 76 -18 13 12 30 15 64
11 50 -7 74 -20 106 -61 12 -15 39 -34 60 -43 22 -8 39 -19 39 -24 0 -5 45
-53 100 -107 l100 -98 0 -109 c0 -158 -32 -596 -53 -713 -13 -76 -35 -108 -99
-141 -16 -8 -28 -18 -28 -22 0 -4 -16 -24 -35 -43 -19 -20 -35 -41 -35 -46 0
-6 -5 -10 -10 -10 -6 0 -13 -7 -17 -16 -3 -9 -19 -30 -35 -47 -38 -41 -53 -68
-37 -65 14 3 48 -74 48 -109 1 -22 21 -34 21 -13 0 6 7 10 15 10 12 0 15 -16
15 -82 0 -46 3 -108 7 -138 6 -46 8 -51 15 -30 5 17 6 12 3 -18 -7 -56 5 -134
16 -107 12 32 11 -85 -2 -125 -6 -19 -14 -87 -19 -150 -13 -163 -62 -315 -132
-407 -78 -104 -181 -215 -256 -276 -68 -56 -166 -118 -191 -122 -8 -1 -19 -9
-26 -19 -11 -14 -9 -21 10 -40 13 -13 31 -26 40 -30 14 -5 15 -9 5 -21 -11
-13 -10 -14 4 -9 20 8 20 6 -4 -50 -15 -32 -19 -58 -15 -83 3 -21 2 -31 -2
-21 -7 14 -10 13 -26 -8 -17 -23 -17 -24 3 -24 26 0 26 -26 0 -100 -10 -30
-17 -56 -15 -58 2 -2 6 6 10 17 3 12 11 21 16 21 13 0 1 -39 -20 -65 -15 -20
-76 -75 -113 -103 -9 -7 -60 -22 -114 -33 -54 -11 -109 -26 -122 -35 -26 -17
-56 -79 -46 -95 3 -6 6 -27 6 -47 0 -20 6 -55 13 -78 8 -23 11 -58 8 -81 -5
-39 3 -54 32 -59 6 -2 105 -44 220 -94 116 -51 237 -102 270 -115 33 -12 134
-55 225 -94 91 -40 206 -88 255 -108 81 -31 422 -153 430 -153 2 0 51 92 109
204 l106 204 0 2326 0 2325 -35 12 c-27 10 -32 16 -23 27 6 7 12 24 13 38 0
19 -7 26 -35 36 -19 6 -29 13 -22 16 7 2 17 14 22 27 5 14 20 26 39 30 28 6
31 10 31 43 0 69 -18 108 -78 166 -32 31 -81 72 -109 91 -28 19 -60 47 -72 63
l-21 30 21 5 c12 3 18 10 15 15 -7 12 96 24 129 16 46 -11 52 -2 44 68 -20
171 -21 198 -7 198 9 0 9 3 -2 10 -11 7 -11 10 -2 10 9 0 10 5 3 18 -7 13 -6
23 2 32 9 10 9 11 0 6 -7 -4 -13 -2 -13 3 0 6 6 11 13 11 8 0 7 4 -3 10 -13 9
-13 10 0 10 10 0 11 3 4 8 -6 4 -11 42 -11 92 0 145 -7 230 -18 230 -5 0 -3 5
5 10 8 5 10 10 3 10 -6 0 -10 11 -9 25 2 15 -1 22 -7 18 -6 -4 -8 0 -4 10 4
10 1 17 -6 17 -8 0 -6 4 3 10 13 8 12 10 -4 10 -15 0 -16 3 -7 14 9 10 9 16 1
21 -6 4 -9 14 -6 22 3 8 1 11 -4 8 -6 -3 -10 -2 -10 4 0 5 6 12 13 14 6 3 3 6
-8 6 -17 1 -17 3 -5 11 13 8 12 10 -2 10 -19 0 -20 20 -3 32 6 5 5 8 -3 8 -7
0 -10 5 -7 10 3 6 1 10 -5 10 -6 0 -8 5 -5 10 3 6 2 10 -4 10 -5 0 -8 11 -6
25 1 14 -3 25 -9 25 -6 0 -4 5 4 10 13 8 12 10 -3 10 -10 0 -15 5 -12 10 3 6
1 10 -6 10 -10 0 -10 3 -2 11 14 14 5 41 -11 32 -6 -4 -5 1 3 10 12 15 11 17
-5 17 -16 0 -17 2 -4 10 11 7 11 10 2 10 -7 0 -10 5 -7 10 3 6 0 10 -7 10 -9
0 -9 3 2 10 12 8 12 10 -5 10 -17 0 -17 2 -5 10 12 8 12 10 -5 10 -17 0 -17 2
-5 10 12 8 12 10 -5 10 -12 0 -16 3 -9 8 18 11 13 41 -5 34 -14 -5 -14 -4 -1
13 8 10 10 16 3 12 -7 -5 -11 -1 -11 10 1 10 -2 41 -5 68 -3 28 -9 102 -12
165 -6 123 -9 155 -25 295 -15 129 -29 202 -52 264 -20 57 -53 95 -74 87 -7
-3 -14 -1 -16 4 -2 5 -31 10 -65 13 -37 2 -70 10 -80 19 -10 9 -35 21 -56 28
-20 6 -35 15 -32 20 2 4 -7 25 -21 46 -15 21 -27 43 -29 49 -4 19 -18 50 -29
64 -5 7 -11 19 -12 26 -1 7 -10 25 -20 40 -10 15 -19 34 -20 41 -1 7 -11 26
-22 41 -11 15 -20 30 -19 33 0 7 -71 149 -138 275 -33 61 -96 182 -141 270
l-82 160 -94 0 c-90 0 -99 -2 -169 -38 -41 -20 -88 -49 -104 -63 -17 -14 -42
-33 -57 -42 -16 -9 -28 -19 -28 -22 0 -4 32 -59 70 -124 82 -135 300 -540 300
-555 0 -6 -7 -11 -16 -11 -9 0 -12 5 -8 13 4 6 -5 1 -20 -13 l-27 -24 -23 28
c-21 27 -24 28 -59 17 -20 -7 -41 -10 -47 -6 -16 10 -50 -5 -50 -21 0 -16 -26
-19 -35 -4 -3 6 -10 10 -14 10 -10 0 -34 -55 -34 -77 0 -7 -6 -12 -13 -9 -7 3
-15 0 -18 -7 -2 -7 -5 7 -5 31 -1 23 -4 42 -7 42 -16 0 -31 -30 -27 -53 6 -30
1 -32 -28 -16 -14 7 -24 7 -33 0 -10 -9 -14 10 -19 92 -7 101 -40 255 -90 407
l-24 75 -6 -45 c-4 -25 -9 -85 -12 -135 -15 -249 -38 -426 -71 -559 -24 -95
-34 -154 -30 -184 4 -46 -17 -232 -33 -286 -5 -17 -17 -66 -26 -108 -14 -60
-25 -85 -52 -114 -29 -32 -131 -225 -162 -306 -7 -19 -26 -34 -60 -48 -63 -28
-82 -49 -121 -140 -65 -148 -112 -245 -141 -288 -16 -23 -29 -46 -29 -49 0 -3
-20 -36 -45 -73 -25 -37 -45 -72 -45 -78 0 -6 -3 -12 -8 -14 -4 -1 -34 -39
-66 -83 -33 -44 -64 -84 -71 -90 -6 -5 -18 -21 -25 -35 -13 -25 -56 -81 -115
-151 -47 -56 -62 -76 -80 -103 -10 -14 -23 -26 -30 -26 -7 0 -15 -7 -19 -15
-3 -8 -12 -15 -20 -15 -8 0 -24 -16 -36 -35 -12 -19 -32 -38 -45 -41 -14 -3
-27 -13 -30 -22 -6 -18 -127 -112 -144 -112 -6 0 -11 -4 -11 -9 0 -5 -9 -13
-21 -16 -11 -4 -42 -21 -67 -38 -26 -18 -54 -30 -63 -29 -9 2 -24 -9 -33 -23
-10 -15 -26 -25 -40 -25 -13 0 -35 -9 -49 -20 -14 -11 -29 -20 -33 -20 -4 0
-15 -6 -23 -14 -32 -27 -149 -49 -257 -49 -48 0 -68 5 -95 24 -19 13 -41 25
-49 27 -8 2 -19 10 -23 18 -7 11 -12 12 -22 4 -10 -9 -17 -4 -31 19 -10 17
-25 32 -33 34 -21 4 -206 -93 -296 -154 -38 -27 -116 -79 -173 -116 -298 -196
-444 -297 -433 -301 6 -2 -14 -26 -44 -53 -29 -28 -52 -56 -49 -63 3 -8 -2
-16 -10 -19 -9 -4 -16 -13 -16 -22 0 -8 -7 -15 -15 -15 -18 0 -35 -39 -35 -79
0 -17 -10 -37 -26 -52 -17 -16 -24 -31 -21 -46 3 -19 -12 -36 -82 -93 -160
-129 -177 -146 -163 -163 10 -11 9 -17 -3 -27 -11 -9 -12 -17 -5 -30 6 -10 10
-21 10 -24 0 -3 -33 -32 -72 -64 -81 -64 -398 -384 -398 -401 0 -6 -20 -30
-44 -55 -24 -24 -57 -63 -72 -86 -17 -25 -49 -54 -81 -72 -56 -31 -58 -35 -44
-57 6 -9 5 -21 -2 -33 -9 -14 -9 -23 0 -37 10 -16 6 -28 -28 -79 -25 -38 -46
-59 -54 -56 -9 4 -12 0 -8 -14 2 -11 0 -23 -6 -26 -6 -4 -11 -16 -11 -26 0
-10 -12 -32 -26 -47 -14 -15 -35 -46 -46 -68 -12 -22 -29 -46 -39 -53 -11 -7
-19 -19 -19 -27 0 -31 -214 -171 -397 -260 -494 -240 -881 -346 -1278 -348
-136 0 -179 3 -285 26 -75 15 -191 30 -290 37 -177 11 -201 16 -445 83 -194
54 -274 86 -329 130 -22 19 -92 71 -154 116 -139 99 -222 185 -264 271 -17 36
-45 79 -62 96 -17 17 -47 50 -66 74 -19 24 -50 60 -68 79 -18 20 -66 82 -107
137 -66 92 -267 347 -302 384 -12 13 -13 12 -5 -10 28 -72 233 -474 265 -519
20 -28 37 -55 37 -60 0 -5 7 -11 15 -15 8 -3 15 -12 15 -21 0 -8 5 -15 10 -15
6 0 10 -6 10 -14 0 -8 16 -32 36 -53 20 -21 59 -65 88 -98 28 -33 53 -62 56
-65 3 -3 22 -27 44 -53 21 -26 40 -46 43 -43 10 9 30 -19 25 -34 -3 -8 -2 -12
2 -8 5 4 43 -27 85 -68 57 -56 73 -76 62 -83 -9 -6 -10 -10 -2 -14 7 -3 7 -5
-1 -3 -7 2 -13 11 -12 22 1 17 -21 49 -28 42 -4 -3 -42 31 -165 144 -57 53
-114 117 -142 161 l-48 73 -339 178 c-186 97 -351 187 -365 199 -22 18 -25 26
-18 46 8 20 11 22 27 10 16 -13 16 -13 0 6 -9 11 -15 29 -13 40 2 11 4 28 4
38 1 10 9 17 21 17 16 0 19 4 12 18 -5 9 -8 22 -5 28 4 11 -68 46 -167 82 -60
22 -540 214 -791 318 -86 35 -166 64 -178 64 -14 0 -23 -8 -27 -27 -16 -63
-55 -132 -108 -189 -54 -60 -55 -63 -44 -95 6 -19 29 -59 52 -89 45 -59 65
-91 66 -103 0 -12 -61 22 -94 52 l-30 26 32 -40 c53 -66 39 -115 -21 -73 l-32
23 28 -34 c31 -37 30 -49 -2 -32 -17 10 -20 9 -15 -4 9 -23 -3 -18 -46 21 -45
41 -46 19 -2 -28 40 -43 20 -43 -35 1 -74 58 -109 116 -112 186 -2 47 2 61 18
77 22 20 27 38 12 38 -5 0 -12 -6 -14 -12 -4 -8 -6 -9 -6 -2 -1 7 52 62 116
123 l117 111 4 63 c5 72 3 74 -98 116 -203 86 -758 340 -779 357 -2 2 4 21 13
44 9 22 16 52 16 66 0 14 4 22 10 19 6 -3 7 1 4 9 -3 9 -1 16 6 16 6 0 9 4 6
9 -8 12 4 42 14 36 4 -3 8 1 7 8 -1 32 4 48 13 42 6 -3 7 1 4 9 -3 9 -1 16 6
16 6 0 9 4 6 9 -8 13 4 42 15 35 5 -3 6 2 3 10 -3 9 -1 16 5 16 6 0 8 7 5 15
-4 8 -2 15 4 15 6 0 16 16 22 35 6 19 13 35 14 35 2 0 99 -47 217 -104 118
-57 239 -115 269 -129 30 -14 98 -45 150 -70 52 -24 106 -48 119 -52 23 -7 24
-5 19 26 -3 19 0 47 7 64 l13 30 6 -45 c11 -89 15 -94 11 -17 -3 60 1 94 17
140 28 87 21 183 -21 267 -77 156 -317 428 -568 647 -71 62 -79 72 -60 76 40
9 112 -9 172 -43 32 -18 55 -28 50 -21 -18 29 79 -38 131 -91 32 -32 60 -58
65 -58 11 0 124 -120 170 -181 83 -110 150 -276 189 -469 19 -88 21 -126 17
-240 -3 -74 -9 -144 -12 -156 -6 -18 0 -24 35 -38 43 -17 53 -15 85 19 6 5 33
30 60 55 28 25 67 65 88 90 20 25 48 56 61 70 13 14 54 66 91 115 68 92 118
141 134 131 4 -3 16 3 25 13 21 23 50 21 53 -5 2 -10 -11 -57 -28 -104 -17
-47 -31 -93 -32 -102 -1 -9 -5 -14 -9 -12 -4 3 -11 -8 -14 -23 -15 -60 -148
-199 -253 -265 -14 -9 -21 -23 -21 -46 0 -39 -32 -24 380 -185 422 -166 475
-185 478 -178 1 4 -14 43 -34 87 -44 96 -135 326 -131 330 2 2 30 -23 62 -56
33 -33 68 -60 78 -60 16 0 14 5 -12 37 -17 21 -31 42 -31 48 -1 5 -9 28 -20
50 -11 22 -20 49 -20 60 0 11 -15 29 -32 40 -37 23 -46 51 -55 157 l-5 76 32
17 c30 15 31 19 25 56 l-7 39 39 0 c36 0 42 4 73 52 19 29 49 59 65 68 17 8
54 30 84 48 58 37 94 51 219 88 166 49 258 118 334 254 17 30 43 75 58 100 15
25 35 66 45 92 17 45 17 48 -9 135 -14 48 -26 95 -26 103 0 8 -14 23 -30 32
-17 9 -30 25 -30 36 0 32 -23 69 -58 93 -44 30 -132 38 -167 15 -13 -9 -35
-16 -47 -16 -16 -1 -5 -10 37 -31 33 -17 64 -35 70 -40 14 -14 -8 -11 -30 5
-24 16 -124 50 -131 44 -2 -3 23 -26 57 -52 33 -26 58 -50 55 -53 -3 -4 -1
-12 5 -19 6 -7 6 -15 1 -18 -5 -3 -41 17 -80 44 l-70 50 -119 -10 c-236 -19
-341 -38 -443 -81 -122 -52 -200 -95 -328 -182 -113 -76 -119 -86 -132 -185
-8 -60 -31 -112 -50 -112 -4 0 -16 8 -26 17 -15 15 -16 32 -10 142 7 120 8
126 41 175 36 54 97 111 209 195 37 28 65 51 63 51 -3 0 -24 -8 -48 -19 -24
-10 -57 -22 -72 -25 -25 -6 -27 -4 -19 11 15 27 15 35 0 45 -11 8 -11 10 1 15
7 3 27 18 45 33 l31 28 -23 78 c-51 175 -148 336 -260 432 -137 118 -308 220
-345 206 -9 -3 -14 -10 -11 -15 3 -5 1 -9 -3 -9 -12 0 -30 -54 -38 -114 -5
-34 -9 -45 -15 -35 -7 11 -10 10 -16 -5 -6 -15 -9 -13 -21 15 -8 19 -29 57
-48 84 -19 28 -37 68 -40 91 -6 47 4 59 105 118 198 116 302 103 548 -67 69
-47 242 -217 242 -238 0 -27 20 -1 45 59 15 37 41 90 57 119 l29 52 -30 15
c-34 18 -69 61 -100 123 -25 50 -27 80 -5 104 11 12 13 22 6 36 -31 59 -34 74
-28 117 4 25 13 58 21 73 7 16 16 81 19 148 15 268 50 409 190 774 157 405
155 401 183 401 39 0 82 28 102 68 24 47 61 167 61 196 -1 11 -28 53 -62 91
-33 39 -103 123 -155 188 -83 104 -138 158 -147 146 -1 -2 -12 -30 -24 -62
-12 -32 -28 -64 -35 -71 -21 -21 -101 -62 -124 -63 -26 -2 -29 7 -38 105 -4
43 -12 75 -19 78 -7 3 -36 -11 -64 -30 -55 -37 -269 -112 -412 -145 -164 -38
-265 -46 -585 -46 -335 0 -378 5 -565 62 -87 27 -120 30 -155 14 -115 -51
-158 -44 -335 56 -151 86 -254 154 -560 373 -212 151 -588 391 -653 416 -16 6
-17 -38 -17 -661z m13544 -1557 c40 -96 42 -109 105 -743 17 -165 35 -334 40
-375 6 -41 13 -129 16 -195 3 -66 10 -194 16 -284 6 -91 9 -190 6 -221 -4 -31
-34 -196 -68 -366 -53 -267 -62 -328 -67 -452 -4 -142 -4 -143 -29 -153 -18
-7 -34 -6 -53 3 -24 10 -27 15 -19 36 5 14 12 39 15 56 2 17 18 87 34 156 36
149 33 137 70 325 29 150 56 310 66 395 27 218 -20 595 -92 739 -36 72 -65
100 -110 103 -26 2 -26 4 -21 55 3 29 9 58 13 65 5 7 10 24 12 37 2 14 8 32
13 40 9 14 10 14 6 0 -3 -9 -2 -21 1 -26 16 -25 23 685 9 822 -5 44 -6 78 -4
75 3 -3 21 -44 41 -92z m-714 -134 c0 -19 -4 -33 -8 -30 -8 5 -4 66 4 66 2 0
4 -16 4 -36z m-9685 -2450 c15 -25 25 -47 23 -49 -11 -10 -85 -45 -95 -45 -7
0 -14 6 -14 13 -1 6 -2 19 -3 27 -1 13 50 100 59 100 1 0 15 -21 30 -46z
m-1804 -207 c-10 -9 -11 -8 -5 6 3 10 9 15 12 12 3 -3 0 -11 -7 -18z m260
-450 c-10 -9 -11 -8 -5 6 3 10 9 15 12 12 3 -3 0 -11 -7 -18z m-1562 -1202 c0
-5 -4 -3 -9 5 -5 8 -9 22 -9 30 0 16 17 -16 18 -35z m371 -15 c-6 -11 -13 -20
-16 -20 -2 0 0 9 6 20 6 11 13 20 16 20 2 0 0 -9 -6 -20z m-20 -54 c0 -3 -4
-8 -10 -11 -5 -3 -10 -1 -10 4 0 6 5 11 10 11 6 0 10 -2 10 -4z m-50 -110 c0
-3 -4 -8 -10 -11 -5 -3 -10 -1 -10 4 0 6 5 11 10 11 6 0 10 -2 10 -4z m13677
-298 c-2 -29 -3 -6 -3 52 0 58 1 81 3 53 2 -29 2 -77 0 -105z m-12477 47 c69
-70 70 -88 2 -30 -31 27 -80 95 -68 95 1 0 31 -29 66 -65z m-155 15 c10 -11
20 -18 23 -15 3 3 15 -3 26 -12 20 -17 20 -17 7 0 -23 29 2 19 34 -15 25 -25
26 -29 8 -19 -37 19 -27 7 37 -44 63 -51 76 -71 36 -55 -13 5 -26 7 -28 4 -8
-8 -139 110 -160 144 -22 35 -11 43 17 12z m-615 -50 c-7 -53 -8 -53 -9 -13
-1 38 7 78 14 71 2 -2 0 -28 -5 -58z m647 -46 c46 -42 82 -79 79 -81 -13 -13
-144 96 -167 140 -17 31 3 18 88 -59z m-32 -102 c-6 -6 -56 32 -85 64 -17 19
-7 13 32 -16 32 -24 55 -46 53 -48z m65 11 c0 -9 -37 18 -65 48 -29 31 -28 31
18 -5 26 -21 47 -40 47 -43z m1481 15 c-13 -20 -12 -21 23 -15 20 3 36 4 36 1
0 -11 -97 -103 -130 -123 -44 -26 -56 -27 -30 -1 11 11 20 26 20 34 0 7 14 19
30 26 34 14 40 40 11 40 -41 0 -36 41 8 65 33 17 51 3 32 -27z m-2340 -21
c-10 -9 -11 -8 -5 6 3 10 9 15 12 12 3 -3 0 -11 -7 -18z m13446 -49 c-3 -7 -5
-2 -5 12 0 14 2 19 5 13 2 -7 2 -19 0 -25z m-13252 -308 c3 -41 3 -72 -1 -67
-4 4 -10 40 -12 80 -5 93 3 84 13 -13z m5036 -149 c11 -32 24 -47 47 -57 29
-12 45 -44 22 -44 -5 0 -7 -6 -4 -14 4 -10 -7 -16 -38 -21 -63 -10 -69 -19
-53 -65 11 -31 11 -39 1 -43 -17 -7 -29 -66 -17 -81 6 -7 6 -18 1 -26 -5 -8
-6 -18 -3 -22 2 -5 0 -15 -6 -22 -7 -8 -7 -23 -2 -44 6 -19 6 -32 -1 -34 -17
-6 32 -56 61 -63 16 -3 35 -13 42 -21 6 -8 15 -14 20 -14 14 0 11 28 -4 41
-17 16 -9 66 12 74 67 26 543 30 621 5 40 -12 125 -26 257 -40 51 -6 104 -15
118 -20 22 -8 24 -13 15 -30 -6 -11 -8 -20 -5 -20 3 0 -5 -10 -16 -21 -20 -20
-20 -23 -5 -31 15 -8 15 -11 1 -31 -13 -18 -13 -23 1 -38 16 -18 27 -59 16
-59 -4 0 -36 5 -71 11 -45 7 -67 7 -75 -1 -5 -5 -25 -10 -43 -10 -22 0 -36 -6
-43 -20 -6 -11 -16 -20 -23 -20 -16 0 -57 -53 -57 -73 0 -8 -7 -28 -15 -44
-16 -32 -49 -43 -185 -58 -30 -3 -64 -10 -75 -15 -11 -5 -49 -14 -85 -19 -112
-17 -204 -41 -225 -60 -11 -10 -28 -21 -39 -25 -10 -3 -16 -12 -13 -20 3 -7
-8 -33 -24 -57 -36 -55 -78 -164 -88 -226 -6 -48 -7 -47 -23 52 -38 231 -210
932 -258 1051 -38 96 -52 114 -80 96 -22 -13 -53 -6 -47 12 2 6 9 11 15 11 6
0 22 10 35 21 22 20 26 20 40 7 14 -14 16 -12 22 21 5 25 12 36 23 34 8 -2 17
3 19 10 3 6 0 12 -7 12 -6 0 -8 5 -5 10 3 6 21 10 38 10 22 0 36 7 46 22 12
19 15 20 25 7 6 -9 23 -24 39 -33 l27 -18 0 44 c0 51 6 60 34 56 14 -2 26 -17
37 -47z m-5021 14 c0 -14 -2 -25 -4 -25 -2 0 -6 11 -8 25 -3 14 -1 25 3 25 5
0 9 -11 9 -25z m4670 -25 c0 -5 -5 -10 -11 -10 -5 0 -7 5 -4 10 3 6 8 10 11
10 2 0 4 -4 4 -10z m-5152 -100 l0 -45 -15 59 c-7 33 -11 67 -7 75 10 21 22
-28 22 -89z m5197 90 c-3 -5 -11 -10 -16 -10 -6 0 -7 5 -4 10 3 6 11 10 16 10
6 0 7 -4 4 -10z m55 -4 c0 -9 -30 -14 -35 -6 -4 6 3 10 14 10 12 0 21 -2 21
-4z m-5342 -179 c18 1 21 -2 11 -13 -17 -20 -43 -17 -65 7 -19 22 -19 22 6 13
14 -4 35 -8 48 -7z m5119 -299 c-3 -7 -5 -2 -5 12 0 14 2 19 5 13 2 -7 2 -19
0 -25z m-1651 -502 c-5 -20 -3 -23 13 -19 17 4 20 0 19 -28 -1 -27 -14 -45
-77 -107 -92 -89 -174 -153 -238 -185 -49 -25 -296 -117 -313 -117 -18 0 -10
17 25 53 41 42 42 47 14 47 -17 0 -19 4 -13 23 4 12 9 24 13 27 31 25 145 94
228 137 57 29 144 84 195 123 99 75 145 91 134 46z"/>
<path d="M5873 1707 c-31 -14 -29 -45 3 -57 14 -6 30 -7 36 -4 7 5 8 2 3 -7
-7 -12 -6 -12 9 0 15 13 16 15 2 23 -9 5 -16 18 -16 28 0 25 -10 30 -37 17z"/>
<path d="M9868 10033 c-28 -7 17 -127 134 -353 58 -113 113 -232 123 -265 9
-33 39 -110 66 -171 45 -100 54 -144 29 -144 -8 0 -3 -184 6 -215 4 -13 3 -17
-4 -10 -5 6 -12 19 -14 30 -3 11 -7 -2 -9 -30 -5 -46 -2 -53 27 -82 28 -29 38
-33 87 -33 31 0 68 5 83 10 45 17 59 5 35 -29 -25 -34 -26 -45 -6 -37 19 7 19
-8 0 -24 -12 -10 -13 -16 -4 -26 23 -28 45 -17 189 93 43 33 150 163 150 182
0 5 -8 14 -17 20 -15 8 -15 13 -5 36 7 14 12 34 12 44 0 11 12 24 30 31 17 7
30 19 30 26 0 8 7 14 15 14 50 0 -48 102 -115 120 -33 9 -47 8 -72 -4 -17 -9
-35 -16 -41 -16 -5 0 -22 -11 -39 -25 -16 -14 -33 -25 -37 -25 -4 0 -36 48
-71 108 -121 204 -220 358 -245 382 -31 29 -31 23 0 -43 14 -29 20 -44 13 -33
-7 10 -32 44 -55 75 -23 31 -71 117 -108 191 -36 74 -68 136 -71 139 -5 5 44
-128 52 -141 3 -4 3 -8 0 -8 -3 0 -21 30 -40 68 -39 78 -103 150 -128 145z
m379 -945 c-3 -8 -6 -5 -6 6 -1 11 2 17 5 13 3 -3 4 -12 1 -19z m453 -84 c0
-8 -4 -12 -10 -9 -5 3 -10 13 -10 21 0 8 5 12 10 9 6 -3 10 -13 10 -21z"/>
<path d="M4220 9555 c0 -38 208 -292 267 -327 33 -19 61 -10 47 15 -15 25
-274 296 -295 307 -10 6 -19 8 -19 5z"/>
<path d="M4170 9510 c0 -5 -7 -10 -15 -10 -16 0 -20 -16 -6 -24 5 -3 14 -20
20 -36 11 -34 4 -33 -36 3 -17 15 -23 17 -22 6 0 -15 18 -43 85 -130 22 -30
52 -77 66 -106 l26 -51 -45 20 c-24 11 -47 17 -50 14 -3 -3 26 -37 65 -76 50
-50 77 -70 95 -70 41 0 41 17 0 44 -45 31 -40 33 17 7 39 -17 43 -18 60 -2 12
11 14 21 8 33 -6 14 -5 16 7 12 20 -8 45 13 45 37 0 10 -34 51 -75 90 -41 40
-110 112 -151 161 -72 83 -94 101 -94 78z m90 -200 c0 -15 -5 -12 -26 11 -19
22 -19 22 4 10 12 -6 22 -16 22 -21z"/>
<path d="M4754 9204 c-16 -20 -54 -47 -84 -61 -30 -13 -78 -47 -107 -75 -45
-44 -50 -53 -37 -65 12 -13 21 -12 67 1 106 31 191 111 201 188 7 50 -5 54
-40 12z"/>
<path d="M14090 8984 c0 -11 -5 -14 -17 -9 -10 4 -25 7 -33 6 -8 -1 -32 -2
-52 -3 -21 0 -38 -2 -38 -5 0 -8 34 -69 60 -108 207 -308 321 -505 312 -538
-1 -4 9 -24 21 -45 13 -20 48 -82 77 -137 29 -55 72 -134 96 -176 23 -42 73
-136 109 -210 37 -74 68 -136 71 -138 2 -2 4 230 4 516 l0 520 -72 45 c-80 50
-202 118 -212 118 -4 0 -1 -6 6 -14 7 -8 16 -12 21 -9 4 2 7 -1 7 -7 0 -6 5
-8 10 -5 6 3 10 2 10 -3 0 -5 10 -13 22 -19 15 -6 18 -12 10 -17 -7 -4 -12 -2
-12 4 0 6 -4 8 -10 5 -5 -3 -10 -2 -10 3 0 6 -18 17 -41 26 -30 12 -39 21 -35
33 5 13 4 13 -8 4 -14 -12 -46 -5 -46 11 0 5 -5 6 -11 2 -8 -4 -9 1 -4 17 7
24 7 24 -9 4 -17 -20 -17 -20 -11 5 5 18 4 21 -3 11 -12 -17 -40 -8 -49 16 -9
24 -44 52 -64 53 -9 0 -22 7 -30 16 -7 8 -25 22 -41 30 -25 13 -28 13 -28 -2z
m473 -276 c-2 -4 -10 -2 -17 5 -8 6 -12 15 -9 19 2 4 10 2 17 -5 8 -6 12 -15
9 -19z m37 -18 c8 -5 11 -10 5 -10 -5 0 -17 5 -25 10 -8 5 -10 10 -5 10 6 0
17 -5 25 -10z"/>
<path d="M3401 7131 c-8 -5 -9 -11 -3 -15 5 -3 12 1 16 9 6 17 6 18 -13 6z"/>
<path d="M9403 6293 c15 -2 39 -2 55 0 15 2 2 4 -28 4 -30 0 -43 -2 -27 -4z"/>
<path d="M9770 6197 c58 -29 115 -60 126 -67 24 -15 57 -76 49 -90 -3 -5 -1
-11 5 -15 5 -3 10 -11 10 -17 0 -14 -68 -6 -215 27 -148 32 -331 41 -535 26
-167 -12 -246 -30 -304 -69 -23 -15 -49 -31 -58 -35 -10 -3 -38 -33 -64 -67
-26 -33 -53 -60 -60 -60 -8 0 -17 13 -21 29 -13 50 -38 17 -49 -64 -7 -55 -12
-69 -25 -67 -20 3 -62 -72 -54 -97 3 -11 30 -38 60 -61 30 -23 55 -47 55 -52
0 -5 20 -31 45 -57 l46 -49 -46 3 c-37 3 -46 0 -43 -12 3 -16 25 -29 157 -93
86 -42 117 -50 281 -75 305 -45 588 -40 805 15 125 31 186 59 289 132 181 130
236 215 211 328 -4 18 -2 44 6 62 12 30 11 31 -54 94 -36 36 -78 80 -93 99
-14 19 -31 35 -38 35 -6 0 -36 28 -67 63 -38 43 -77 73 -120 95 -75 38 -223
77 -329 86 l-75 7 105 -54z"/>
<path d="M3928 6180 c-64 -8 -119 -18 -122 -21 -4 -3 56 -9 131 -13 76 -4 169
-13 208 -21 38 -8 72 -15 75 -15 7 0 -131 70 -155 79 -11 4 -73 0 -137 -9z"/>
<path d="M3768 6153 c7 -3 16 -2 19 1 4 3 -2 6 -13 5 -11 0 -14 -3 -6 -6z"/>
<path d="M3708 6143 c7 -3 16 -2 19 1 4 3 -2 6 -13 5 -11 0 -14 -3 -6 -6z"/>
<path d="M3635 6133 c-52 -11 -115 -36 -115 -44 0 -11 -9 -13 90 20 74 26 87
38 25 24z"/>
<path d="M2446 5475 c72 -93 157 -259 210 -414 18 -53 33 -91 33 -85 2 31 -55
200 -96 284 -43 90 -136 229 -165 246 -7 5 1 -10 18 -31z"/>
<path d="M2860 4540 c-9 -6 -10 -10 -3 -10 6 0 15 5 18 10 8 12 4 12 -15 0z"/>
<path d="M12880 4220 c-9 -6 -10 -10 -3 -10 6 0 15 5 18 10 8 12 4 12 -15 0z"/>
<path d="M12828 4193 c-1 -5 -19 -16 -38 -26 -19 -10 -46 -27 -60 -38 l-25
-21 35 19 c19 10 41 24 48 31 7 6 19 12 26 12 8 0 19 7 26 15 8 9 8 15 2 15
-6 0 -12 -3 -14 -7z"/>
<path d="M12674 4094 c-18 -14 -18 -15 4 -4 12 6 22 13 22 15 0 8 -5 6 -26
-11z"/>
<path d="M270 3150 c-6 -11 -8 -20 -6 -20 3 0 10 9 16 20 6 11 8 20 6 20 -3 0
-10 -9 -16 -20z"/>
<path d="M10614 2668 l-19 -23 23 19 c21 18 27 26 19 26 -2 0 -12 -10 -23 -22z"/>
<path d="M14021 2604 c0 -11 3 -14 6 -6 3 7 2 16 -1 19 -3 4 -6 -2 -5 -13z"/>
<path d="M14001 2524 c0 -11 3 -14 6 -6 3 7 2 16 -1 19 -3 4 -6 -2 -5 -13z"/>
<path d="M320 1535 c-7 -8 -19 -15 -26 -15 -23 0 -16 -12 41 -73 l54 -59 -14
54 c-7 29 -16 65 -19 81 -7 30 -18 34 -36 12z"/>
<path d="M10245 1237 c-49 -144 -148 -409 -173 -467 -23 -53 -77 -129 -97
-136 -8 -3 -31 13 -55 38 -33 35 -42 40 -50 28 -14 -21 -12 -30 5 -30 18 0 63
-47 76 -80 28 -69 -76 -313 -209 -493 l-72 -97 825 0 c684 0 825 2 825 13 0 8
9 22 20 32 19 17 19 20 4 43 -20 30 -5 51 20 27 9 -9 20 -13 26 -10 15 9 12
-1 -15 -55 l-25 -49 687 -1 c377 0 684 2 681 5 -5 5 -452 159 -728 251 -58 19
-114 33 -124 30 -11 -3 -28 1 -36 9 -19 17 -107 28 -115 14 -4 -5 -1 -9 6 -9
7 0 9 -3 6 -6 -4 -4 -13 -1 -21 5 -13 11 -27 3 -32 -19 0 -3 -6 -18 -13 -35
l-13 -30 -16 25 c-25 36 -93 103 -119 117 -12 6 -35 12 -50 11 -49 0 -148 58
-224 131 -62 60 -101 85 -283 182 -116 62 -263 145 -326 186 -63 40 -125 73
-136 73 -12 0 -34 10 -49 22 -41 32 -77 16 -89 -39 -6 -28 -16 -44 -32 -52
-13 -6 -24 -15 -24 -21 0 -15 44 -82 81 -125 17 -19 29 -38 27 -40 -3 -3 -31
7 -63 21 -49 23 -65 26 -113 20 -73 -9 -124 -39 -116 -70 6 -25 -20 -60 -53
-70 -27 -9 -33 -56 -8 -56 22 0 -3 -37 -76 -117 -54 -59 -100 -150 -124 -246
-5 -19 -20 -34 -48 -49 l-41 -20 16 24 c8 13 35 59 58 103 24 44 51 91 60 105
38 59 190 385 225 485 9 28 20 57 23 65 3 8 6 20 7 25 1 6 6 21 12 35 28 69
127 400 120 406 -1 2 -20 -47 -42 -109z"/>
<path d="M13346 1105 c-33 -30 -55 -55 -50 -55 10 1 82 65 103 93 22 28 9 19
-53 -38z"/>
<path d="M5014 953 c-11 -12 -13 -18 -5 -21 13 -4 41 16 41 29 0 14 -17 10
-36 -8z"/>
<path d="M4374 579 c-19 -22 -19 -22 4 -10 12 6 22 16 22 21 0 15 -5 12 -26
-11z"/>
<path d="M610 453 c0 -6 9 -20 20 -33 11 -13 20 -20 20 -16 0 4 -9 19 -20 33
-11 14 -20 21 -20 16z"/>
<path d="M697 448 c-2 -7 0 -26 4 -41 9 -31 2 -60 -12 -51 -5 3 -6 11 -3 17 4
7 4 9 -1 5 -4 -4 -15 -2 -23 5 -13 10 -14 9 -4 -8 5 -11 19 -29 29 -40 25 -28
63 -108 63 -134 0 -12 12 -62 27 -111 l28 -90 148 0 149 0 -24 29 c-13 15 -26
27 -30 25 -4 -3 -19 7 -35 21 -46 40 -52 45 -60 45 -11 0 -128 124 -125 133 1
5 -2 6 -7 2 -11 -6 -34 29 -24 38 3 4 -4 5 -15 2 -16 -3 -19 0 -15 12 4 11 2
14 -5 9 -8 -5 -10 -1 -5 10 5 13 3 15 -7 9 -8 -5 -11 -4 -7 2 3 5 0 22 -8 36
-8 15 -14 30 -15 32 0 3 -1 8 -1 13 -1 4 -1 15 0 25 3 19 -15 23 -22 5z"/>
<path d="M4298 3 c7 -3 16 -2 19 1 4 3 -2 6 -13 5 -11 0 -14 -3 -6 -6z"/>
<path d="M4368 3 c7 -3 16 -2 19 1 4 3 -2 6 -13 5 -11 0 -14 -3 -6 -6z"/>
</g>
</svg>
